,
.   http://www.scenetime.com/signup.php  ---&gt;  Hottest scene tracker on the net !!!  

    Join Now   http://www.scenetime.com/signup.php

    seed back for speed


 



...................................NFO:.................................................[IMG]http://img853.imageshack.us/img853/8417/206300165c9911atn.jpg[/IMG]



[color=blue][size=5][b]7Lives.2011.BDRip.XVID.AC3.HQ.Hive-CM8[/b][/size][/color]


[b]Thx Hive

CM8 Doing It Right The First Time :D


Source: Bluray

Video: 720x400 @bitrate 1650 2pass
Audio: English DTS to AC3 5.1 @384
Sample: yes included[/b]


[url]http://www.imdb.com/title/tt1558246/[/url]


General
Complete name                  : 7Lives.2011.BDRip.XVID.AC3.HQ.Hive-CM8.avi
Format                         : AVI
Format/Info                    : Audio Video Interleave
File size                      : 1.42 GiB
Duration                       : 1h 39mn
Overall bit rate               : 2 042 Kbps
Writing application            : Nandub v1.0rc2
Writing library                : Nandub build 1853/release

Video
ID                             : 0
Format                         : MPEG-4 Visual
Format profile                 : Advanced Simple@L5
Format settings, BVOP          : 1
Format settings, QPel          : Yes
Format settings, GMC           : No warppoints
Format settings, Matrix        : Default (H.263)
Muxing mode                    : Packed bitstream
Codec ID                       : XVID
Codec ID/Hint                  : XviD
Duration                       : 1h 39mn
Bit rate                       : 1 649 Kbps
Width                          : 720 pixels
Height                         : 400 pixels
Display aspect ratio           : 16:9
Frame rate                     : 24.000 fps
Color space                    : YUV
Chroma subsampling             : 4:2:0
Bit depth                      : 8 bits
Scan type                      : Progressive
Compression mode               : Lossy
Bits/(Pixel*Frame)             : 0.239
Stream size                    : 1.15 GiB (81%)
Writing library                : XviD 1.2.1 (UTC 2008-12-04)

Audio
ID                             : 1
Format                         : AC-3
Format/Info                    : Audio Coding 3
Mode extension                 : CM (complete main)
Codec ID                       : 2000
Duration                       : 1h 39mn
Bit rate mode                  : Constant
Bit rate                       : 384 Kbps
Channel(s)                     : 6 channels
Channel positions              : Front: L C R, Side: L R, LFE
Sampling rate                  : 48.0 KHz
Bit depth                      : 16 bits
Compression mode               : Lossy
Stream size                    : 273 MiB (19%)
Alignment                      : Split accross interleaves
Interleave, duration           : 42 ms (1.00 video frame)
Interleave, preload duration   : 500 ms



Plot:

Tom, a married man with kids, is struggling at work when a client tries to seduce him with promises 
of a 'more exciting life'. On his way home one night he gets attacked by a gang of hoodies and falls 
into a parallel world where he lives 5 other lives including a Rock-Star, a Homeless person and the 'hoody' that attacked him.

Cast:


Layla Amir	... 	Nurse
Kate Ashfield	... 	Cynthia
Julien Ball	... 	Doctor
Theo Barklem-Biggs	... 	Kid
Nick Brimble	... 	Ted


[img]http://img824.imageshack.us/img824/1724/33491370.png[/img]
[img]http://img202.imageshack.us/img202/8350/lillilii.png[/img]
[img]http://img27.imageshack.us/img27/5236/lilliiilllii.png[/img]
[img]http://img818.imageshack.us/img818/1463/lilliiillliiililli.png[/img]
[img]http://img69.imageshack.us/img69/6752/lilliiillliili.png[/img]
[img]http://img440.imageshack.us/img440/1184/lilliillii.png[/img]
[img]http://img545.imageshack.us/img545/4427/llii.png[/img]
[img]http://img594.imageshack.us/img594/3369/llilii.png[/img]
[img]http://img851.imageshack.us/img851/5971/lilliiillliiilli.png[/img]





Greetz

ViSiON,SiC,SANTi,3LT0N,YanKeeS,MAGNET,THC,T0XiC,LKRG,FANTASIA-PLAY,FANTASIA-M,FLAWL3SS,
D2U,WBZ,BHRG,NOVA,Vik,Rapeseed,SAFC,goldadvance,MEMORY100,KaN1vE,Unevano,Pinnz,Wayne
Mr Hive,cedrict wink,and all P2P groups
Great Work Guys :D

LOOKING FOR ANYTHING YOU WANT TO LOOK AND SOUND BETTER

CM8@hushmail.com